<?xml version="1.0" encoding="UTF-8"?>
<svg xmlns="http://www.w3.org/2000/svg" height="512px" viewBox="0 -7 511.99964 511" width="512px"><path d="m191.039062 38.957031h-.058593l-62.152344 81.402344c-2.925781 3.839844-2.191406 9.324219 1.648437 12.25.140626.109375.285157.210937.433594.3125l83.195313 55.839844c1.4375.964843 3.132812 1.484375 4.867187 1.484375.570313.003906 1.136719-.054688 1.695313-.164063 2.277343-.453125 4.277343-1.789062 5.570312-3.714843l22.601563-33.78125 15.898437 28.273437-36.21875 20.871094c-4.179687 2.417969-5.605469 7.765625-3.1875 11.945312 1.25 2.15625 3.363281 3.679688 5.808594 4.179688l131.101563 27.183593c4.292968.886719 8.578124-1.542968 10.023437-5.679687l42.828125-123.070313c1.574219-4.5625-.847656-9.539062-5.410156-11.113281-2.351563-.8125-4.933594-.585937-7.109375.625l-32.582031 18.1875-50.960938-84.308593c-1.582031-2.617188-4.421875-4.21875-7.484375-4.21875h-113.621094c-2.710937.03125-5.257812 1.324218-6.886719 3.496093zm25.539063 130.367188-68.171875-45.78125 48.453125-63.46875 42.410156 75.390625zm90.039063-116.382813 52.746093 87.292969c2.4375 4.03125 7.628907 5.40625 11.738281 3.113281l19.894532-11.101562-32.742188 94.125-101.140625-20.976563 23.84375-13.785156c4.148438-2.390625 5.597657-7.675781 3.253907-11.851563l-71.335938-126.816406zm0 0" fill="#0066CC"/><path d="m104.019531 90.792969 8.742188-9.710938 12.988281 11.695313-8.742188 9.710937zm0 0" fill="#0066CC"/><path d="m193.078125 17.980469h74.769531v-17.480469h-78.660156c-2.476562 0-4.835938 1.050781-6.492188 2.894531l-61.183593 67.980469 12.988281 11.691406zm0 0" fill="#0066CC"/><path d="m332.464844 290.808594c-.800782 2.179687-.699219 4.585937.277344 6.6875l17.121093 36.875-32.425781-1.101563.929688-41.8125c.085937-4.828125-3.757813-8.808593-8.585938-8.894531-2.476562-.042969-4.855469.964844-6.542969 2.777344l-91.328125 97.816406c-2.996094 3.207031-3.148437 8.140625-.355468 11.53125l82.898437 100.507812c1.660156 2.015626 4.136719 3.183594 6.746094 3.183594.953125 0 1.898437-.15625 2.796875-.464844 3.4375-1.160156 5.800781-4.328124 5.9375-7.953124l1.398437-37.285157 98.472657.28125c3.066406.035157 5.921874-1.5625 7.5-4.195312l59.027343-97.085938c1.394531-2.328125 1.621094-5.171875.613281-7.691406h.070313l-37.257813-95.414063c-1.753906-4.496093-6.824218-6.722656-11.320312-4.96875-.167969.066407-.332031.136719-.496094.214844l-90.898437 42.0625c-2.125.96875-3.773438 2.742188-4.578125 4.929688zm72.460937 144.667968-101.996093-.296874c-4.703126-.003907-8.566407 3.714843-8.738282 8.414062l-.875 22.726562-63.410156-76.914062 70.472656-75.515625-.613281 27.542969c-.101563 4.78125 3.660156 8.761718 8.445313 8.921875l145.414062 4.949219zm21.921875-171.902343 29.050782 74.371093-86.457032-2.9375-17.15625-36.945312zm0 0" fill="#0066CC"/><path d="m461.117188 247.71875 16.738281-5.03125 3.761719 12.511719-16.742188 5.03125zm0 0" fill="#0066CC"/><path d="m493.789062 356.632812-38.851562 63.878907 14.9375 9.125 40.875-67.210938c1.273438-2.121093 1.589844-4.683593.875-7.050781l-26.261719-87.636719-16.746093 5.023438zm0 0" fill="#0066CC"/><path d="m68.355469 442.441406c1.550781 2.234375 4.050781 3.621094 6.765625 3.75v.050782l102.257812 5.246093h.445313c4.828125 0 8.742187-3.914062 8.742187-8.742187 0-.027344 0-.058594 0-.085938l-.960937-100.207031c-.023438-2.320313-.964844-4.535156-2.625-6.160156-1.667969-1.605469-3.894531-2.5-6.210938-2.492188l-40.632812.457031 14.332031-29.097656 37.730469 18.03125c4.355469 2.085938 9.574219.246094 11.660156-4.105468 1.078125-2.253907 1.140625-4.859376.175781-7.160157l-51.65625-123.472656c-1.691406-4.046875-6.121094-6.210937-10.355468-5.058594l-125.726563 34.242188c-4.65625 1.265625-7.410156 6.070312-6.144531 10.726562.65625 2.414063 2.3125 4.429688 4.554687 5.539063l33.394531 16.5625-40.710937 89.691406c-1.265625 2.785156-.984375 6.03125.742187 8.554688zm99.855469-91.046875.785156 82.160157-79.742188-4.101563 38.238282-77.601563zm-104.6875-101.382812c1.945312-4.289063.144531-9.347657-4.074219-11.441407l-20.40625-10.136718 96.140625-26.222656 39.871094 95.269531-24.855469-11.878907c-4.320313-2.0625-9.496094-.265624-11.609375 4.027344l-64.265625 130.605469-52.945313-77.332031zm0 0" fill="#0066CC"/><path d="m154.132812 486.875 2.304688-17.328125 12.953125 1.722656-2.304687 17.328125zm0 0" fill="#0066CC"/><path d="m50.515625 473.136719 90.652344 12.042969 2.308593-17.324219-86.796874-11.535157-42.292969-61.644531-14.386719 9.851563 44.460938 64.886718c1.398437 2.042969 3.601562 3.394532 6.054687 3.722657zm0 0" fill="#0066CC"/></svg>