<?xml version="1.0" encoding="windows-1252"?>
<!-- Generator: Adobe Illustrator 19.0.0, SVG Export Plug-In . SVG Version: 6.00 Build 0)  -->
<svg xmlns="http://www.w3.org/2000/svg" xmlns:xlink="http://www.w3.org/1999/xlink" version="1.1" id="Capa_1" x="0px" y="0px" viewBox="0 0 511.999 511.999" style="enable-background:new 0 0 511.999 511.999;" xml:space="preserve" width="512px" height="512px">
<g>
	<g>
		<path d="M484.958,243.114c-0.004-5.517-4.481-9.993-10.002-9.993h-26.561c-4.625-17.943-11.698-35.026-21.101-50.966    l18.782-18.784c3.905-3.905,3.905-10.237,0-14.142l-28.29-28.29c-3.906-3.905-10.236-3.905-14.143,0    c-3.905,3.905-3.905,10.237,0,14.142l21.22,21.219l-17.307,17.307c-3.333,3.333-3.886,8.54-1.327,12.499    c11.704,18.11,19.939,37.999,24.477,59.115c0.99,4.608,5.063,7.899,9.776,7.899h24.476l0.021,59.611h-24.497    c-4.713,0-8.787,3.291-9.776,7.899c-4.538,21.118-12.773,41.008-24.476,59.117c-2.559,3.958-2.006,9.166,1.327,12.499    l17.375,17.375l-42.129,42.175l-17.397-17.397c-3.334-3.333-8.542-3.886-12.499-1.327c-18.108,11.704-37.998,19.939-59.117,24.477    c-4.607,0.99-7.898,5.063-7.898,9.777v24.636l-59.612,0.021v-24.657c0-4.713-3.291-8.787-7.899-9.777    c-21.117-4.538-41.008-12.773-59.117-24.477c-3.958-2.559-9.165-2.006-12.499,1.327l-17.466,17.466L87.15,409.713l17.466-17.466    c3.333-3.333,3.886-8.541,1.327-12.5c-11.704-18.109-19.94-38-24.477-59.118c-0.99-4.608-5.064-7.899-9.777-7.899H47.031    l0.021-59.611h24.636c4.713,0,8.787-3.291,9.776-7.899c4.538-21.117,12.773-41.007,24.478-59.116    c2.559-3.959,2.006-9.167-1.327-12.5l-17.401-17.401l15.578-15.579c3.905-3.905,3.905-10.237,0-14.142    c-3.906-3.905-10.236-3.905-14.143,0l-22.648,22.648c-1.875,1.875-2.929,4.419-2.929,7.071s1.054,5.196,2.929,7.071l18.878,18.878    c-9.404,15.94-16.479,33.024-21.102,50.967h-26.72c-5.521,0-9.998,4.475-10,9.997l-0.029,79.61    c-0.001,2.653,1.052,5.198,2.928,7.074c1.875,1.876,4.42,2.93,7.072,2.93h26.749c4.624,17.943,11.698,35.028,21.102,50.969    l-18.943,18.943c-3.905,3.905-3.905,10.237,0,14.143l56.294,56.294c3.906,3.904,10.236,3.904,14.143,0l18.943-18.943    c15.939,9.404,33.024,16.478,50.968,21.101v26.749c0,2.653,1.054,5.197,2.931,7.072c1.875,1.875,4.418,2.928,7.069,2.928    c0.001,0,0.003,0,0.003,0l79.612-0.029c5.521-0.002,9.996-4.479,9.996-10v-26.721c17.946-4.625,35.027-11.698,50.967-21.102    l18.878,18.878c1.876,1.875,4.419,2.929,7.071,2.929h0.003c2.653,0,5.197-1.056,7.072-2.933l56.263-56.325    c3.901-3.906,3.899-10.235-0.004-14.138l-18.848-18.849c9.403-15.939,16.477-33.022,21.1-50.966h26.59    c2.652,0,5.197-1.054,7.072-2.93c1.876-1.876,2.929-4.421,2.928-7.074L484.958,243.114z" fill="#0066CC"/>
	</g>
</g>
<g>
	<g>
		<path d="M356.611,182.799l-0.228-0.228c-3.924-3.888-10.254-3.861-14.144,0.062c-3.888,3.922-3.859,10.254,0.063,14.142    l0.103,0.103c1.955,1.973,4.528,2.96,7.103,2.96c2.545,0,5.09-0.965,7.04-2.897C360.47,193.053,360.498,186.721,356.611,182.799z" fill="#0066CC"/>
	</g>
</g>
<g>
	<g>
		<path d="M502,40.015H377.997V10.015c0-5.523-4.478-10-10-10H144.003c-5.522,0-10,4.477-10,10v29.999H10c-5.522,0-10,4.477-10,10    v39.999c0,5.523,4.478,10,10,10h124.004v6c0,2.79,1.145,5.31,2.987,7.124l70.183,70.183c1.461,1.46,3.328,2.414,5.334,2.768    v37.906c0,3.519,1.85,6.779,4.871,8.584l28.628,17.106v38.337c0,18.746,15.251,33.995,33.995,33.995h24.003    c7.718,0,13.996,6.279,13.996,13.996c0,7.717-6.278,13.996-13.996,13.996h-61.998c-18.745,0-33.995,15.25-33.995,33.995v11.229    c-14.114-6.039-27.087-14.775-38.27-25.957c-23.042-23.041-35.732-53.679-35.732-86.265s12.69-63.222,35.732-86.265    c3.905-3.905,3.905-10.237,0-14.142c-3.905-3.905-10.235-3.905-14.143,0c-26.819,26.819-41.59,62.478-41.59,100.406    c0,37.929,14.771,73.587,41.59,100.406c26.819,26.82,62.477,41.59,100.406,41.59s73.587-14.771,100.406-41.59    c45.265-45.265,54.643-115.605,22.804-171.057c-2.749-4.789-8.861-6.442-13.651-3.693c-4.789,2.75-6.442,8.862-3.692,13.651    c27.35,47.635,19.289,108.065-19.603,146.956c-23.041,23.041-53.679,35.732-86.265,35.732c-9.548,0-18.924-1.098-27.995-3.217    v-17.786c0-7.717,6.278-13.996,13.996-13.996h61.998c18.745,0,33.995-15.25,33.995-33.995c0-18.745-15.251-33.995-33.995-33.995    h-24.003c-7.718,0-13.996-6.279-13.996-13.996v-38.337l28.628-17.106c3.021-1.805,4.871-5.065,4.871-8.584v-37.906    c2.006-0.354,3.873-1.308,5.334-2.768l70.235-70.235c0.017-0.017,0.024-0.034,0.04-0.051c1.782-1.806,2.883-4.284,2.883-7.021v-6    h124.003c5.522,0,10-4.477,10-10V50.014C512,44.491,507.522,40.015,502,40.015z M134.004,80.013H20v-20h114.004V80.013z     M279.506,218.32l-23.499,14.042l-23.499-14.042v-32.071h46.999V218.32z M293.626,166.248h-4.12h-66.998h-4.12l-50.236-50.236    h175.71L293.626,166.248z M357.998,96.013H154.003V68.014h116.17c5.522,0,10-4.477,10-10c0-5.523-4.478-10-10-10h-116.17V20.015    h203.995V96.013z M492,80.013H377.997v-20H492V80.013z" fill="#0066CC"/>
	</g>
</g>
<g>
	<g>
		<path d="M312.69,48.014h-0.148c-5.522,0-10,4.477-10,10c0,5.523,4.477,10,10,10h0.148c5.522,0,10-4.477,10-10    C322.69,52.491,318.212,48.014,312.69,48.014z" fill="#0066CC"/>
	</g>
</g>
<g>
</g>
<g>
</g>
<g>
</g>
<g>
</g>
<g>
</g>
<g>
</g>
<g>
</g>
<g>
</g>
<g>
</g>
<g>
</g>
<g>
</g>
<g>
</g>
<g>
</g>
<g>
</g>
<g>
</g>
</svg>