<?xml version="1.0" encoding="UTF-8"?>
<svg xmlns="http://www.w3.org/2000/svg" height="512px" viewBox="0 -30 512.00065 512" width="512px"><path d="m503.46875 435.199219h-51.203125v-231.554688c5.605469-10.089843 8.542969-21.4375 8.535156-32.976562-.007812-2.496094-.148437-4.992188-.425781-7.472657l37.867188-37.867187c16.644531-16.679687 16.644531-43.683594 0-60.367187-1.054688-.953126-2.160157-1.855469-3.308594-2.695313v-45.199219c-.007813-9.421875-7.644532-17.0585935-17.066406-17.066406h-128c-9.421876.0078125-17.058594 7.644531-17.066407 17.066406h-60.050781c-13.53125-18.09375-38.851562-22.433594-57.636719-9.882812-18.789062 12.550781-24.46875 37.605468-12.933593 57.03125l-12.988282 31.476562c-1.949218 4.207032-1.996094 9.050782-.128906 13.292969l4.609375 11.179687c.585937 1.339844 1.347656 2.601563 2.261719 3.746094l-7.457032 17.992188c-1.804687 4.355468.261719 9.347656 4.617188 11.152344.875.332031 1.800781.515624 2.738281.546874h-86.847656c-22.835937.070313-42.886719 15.195313-49.230469 37.132813l-13.769531 48.199219h-20.382813c-14.132812.015625-25.585937 11.46875-25.601562 25.601562-.046875 6.757813 2.640625 13.246094 7.457031 17.988282 1.378907 1.386718 2.914063 2.605468 4.574219 3.636718-7.703125 7.917969-12.0195312 18.527344-12.03125 29.574219v51.199219c.0351562 10.8125 6.867188 20.433594 17.066406 24.027344v35.707031c.03125 2.914062.5625 5.800781 1.574219 8.53125h-10.105469c-4.714844 0-8.535156 3.820312-8.535156 8.535156 0 4.710937 3.820312 8.53125 8.535156 8.53125h494.933594c4.710938 0 8.53125-3.820313 8.53125-8.53125 0-4.714844-3.820312-8.535156-8.53125-8.535156zm-153.601562-153.597657h34.132812v93.867188h-34.132812zm-8.535157-110.933593c0-28.277344 22.925781-51.199219 51.203125-51.199219s51.199219 22.921875 51.199219 51.199219c0 28.277343-22.921875 51.199219-51.199219 51.199219-28.265625-.03125-51.171875-22.9375-51.203125-51.199219zm144.839844-57.40625-30.78125 30.78125c-6.949219-16.300781-19.933594-29.28125-36.234375-36.234375l24.976562-24.972656 5.808594-5.808594c10.015625-9.933594 26.179688-9.902344 36.160156.074218 9.976563 9.976563 10.007813 26.140626.070313 36.160157zm-136.304687-96.195313h128v36.683594c-14.375-3.460938-29.515626.785156-39.996094 11.210938l-3.304688 3.304687h-84.699218zm-17.066407 34.132813h-52.199219c1.164063-5.628907 1.164063-11.4375 0-17.066407h52.199219zm-117.640625-18.320313c4.671875-11.285156 16.667969-17.699218 28.648438-15.316406 11.984375 2.382812 20.613281 12.894531 20.613281 25.113281 0 12.214844-8.628906 22.730469-20.613281 25.113281-11.980469 2.382813-23.976563-4.03125-28.648438-15.316406-2.617187-6.269531-2.617187-13.324218 0-19.59375zm-5.707031 80.773438-.011719-.007813-4.609375-11.144531 10.101563-24.460938c4.765625 3.222657 10.136718 5.441407 15.785156 6.527344l-10.144531 24.453125zm-5.214844 34.78125 7.441407-17.960938c1.449218-.171875 2.867187-.53125 4.226562-1.066406l11.09375-4.578125c4.214844-1.71875 7.570312-5.050781 9.316406-9.257813l13.1875-31.761718c1.914063-.441406 3.796875-1.011719 5.632813-1.710938 7.011719-2.941406 13.101562-7.71875 17.625-13.832031h60.039062c.007813 9.421875 7.644531 17.058594 17.066407 17.066406h67.632812l-17.492188 17.496094c-19.300781-2.179687-38.609374 3.984375-53.078124 16.941406-14.464844 12.957031-22.710938 31.476563-22.664063 50.898438-.007813 11.539062 2.929687 22.886719 8.535156 32.976562v231.554688h-44.238281c1.011719-2.730469 1.542969-5.617188 1.570312-8.53125v-35.707031c10.199219-3.59375 17.035157-13.214844 17.066407-24.027344v-51.199219c-.007813-11.039063-4.320313-21.640625-12.015625-29.558594 1.601562-.988281 3.078125-2.164062 4.410156-3.496093 4.894531-4.761719 7.644531-11.316407 7.605469-18.144532-.015625-14.132812-11.464844-25.585937-25.597657-25.601562h-20.382812l-13.773438-48.199219c-6.34375-21.9375-26.394531-37.0625-49.226562-37.132813h-1.160156c3.171875-.238281 5.945312-2.234374 7.179687-5.167968zm-127.4375 244.101562h153.601563v34.132813c.027344 2.914062.558594 5.800781 1.570312 8.53125h-156.746094c1.011719-2.730469 1.546876-5.617188 1.574219-8.53125zm-8.535156-17.066406h-42.664063c-4.710937-.007812-8.527343-3.824219-8.535156-8.535156v-51.199219c.015625-14.132813 11.46875-25.585937 25.601563-25.601563h221.867187c14.132813.015626 25.582032 11.46875 25.597656 25.601563v51.199219c-.003906 4.710937-3.820312 8.527344-8.53125 8.535156zm219.257813-104.859375c-1.554688 1.589844-3.695313 2.480469-5.921876 2.457031h-10.632812l-4.875-17.066406h15.507812c4.710938.007812 8.527344 3.824219 8.53125 8.535156.007813 2.296875-.9375 4.496094-2.609374 6.074219zm-211.359376-75.183594c4.226563-14.625 17.59375-24.710937 32.820313-24.757812h89.234375c15.222656.046875 28.589844 10.132812 32.820312 24.757812l22.183594 77.640625h-199.242187zm-50.5625 60.574219h15.507813l-4.878906 17.066406h-10.628907c-2.300781.007813-4.496093-.9375-6.074218-2.609375-1.59375-1.558593-2.480469-3.695312-2.460938-5.921875.007813-4.710937 3.824219-8.527344 8.535156-8.535156zm17.066407 179.199219c-4.710938-.003907-8.527344-3.820313-8.535157-8.53125v-34.132813h25.601563v34.132813c-.007813 4.710937-3.824219 8.527343-8.535156 8.53125zm213.332031 0c-4.710938-.003907-8.527344-3.820313-8.53125-8.53125v-34.132813h25.597656v34.132813c-.003906 4.710937-3.820312 8.527343-8.53125 8.53125zm93.867188 0v-42.664063h34.132812c9.421875-.011718 17.058594-7.644531 17.066406-17.066406v-93.867188c-.007812-9.421874-7.644531-17.058593-17.066406-17.066406h-34.132812v-40.664062c24.898437 20.082031 60.433593 20.082031 85.332031 0v211.328125zm0 0" fill="#0066CC"/><path d="m392.535156 196.265625c14.136719 0 25.597656-11.460937 25.597656-25.597656 0-14.140625-11.460937-25.601563-25.597656-25.601563-14.140625 0-25.601562 11.460938-25.601562 25.601563.015625 14.132812 11.46875 25.582031 25.601562 25.597656zm0-34.132813c4.710938 0 8.53125 3.820313 8.53125 8.535157 0 4.710937-3.820312 8.53125-8.53125 8.53125-4.714844 0-8.535156-3.820313-8.535156-8.53125.007812-4.710938 3.824219-8.527344 8.535156-8.535157zm0 0" fill="#0066CC"/><path d="m477.867188 93.867188c0 4.710937-3.820313 8.53125-8.535157 8.53125-4.710937 0-8.53125-3.820313-8.53125-8.53125 0-4.714844 3.820313-8.535157 8.53125-8.535157 4.714844 0 8.535157 3.820313 8.535157 8.535157zm0 0" fill="#0066CC"/><path d="m96.285156 314.773438-42.671875-6.09375c-4.898437-.699219-9.855469.761718-13.59375 4-3.738281 3.242187-5.882812 7.945312-5.886719 12.890624v15.761719c.011719 9.421875 7.644532 17.058594 17.066407 17.066407h42.667969c9.421874-.007813 17.058593-7.644532 17.066406-17.066407v-9.664062c-.035156-8.480469-6.261719-15.65625-14.648438-16.894531zm-45.085937 26.558593v-15.761719l42.667969 6.097657.011718 9.664062zm0 0" fill="#0066CC"/><path d="m253.585938 308.679688-42.664063 6.09375c-8.390625 1.234374-14.617187 8.414062-14.65625 16.894531v9.664062c.011719 9.421875 7.648437 17.058594 17.066406 17.066407h42.667969c9.421875-.007813 17.058594-7.644532 17.066406-17.066407v-15.761719c0-4.949218-2.144531-9.652343-5.882812-12.894531-3.738282-3.242187-8.703125-4.703125-13.597656-4zm2.414062 32.652343h-42.667969v-9.664062l42.667969-6.097657zm0 0" fill="#0066CC"/><path d="m170.667969 307.199219h-34.132813c-4.714844 0-8.535156 3.820312-8.535156 8.535156 0 4.710937 3.820312 8.53125 8.535156 8.53125h34.132813c4.710937 0 8.53125-3.820313 8.53125-8.53125 0-4.714844-3.820313-8.535156-8.53125-8.535156zm0 0" fill="#0066CC"/><path d="m170.667969 341.332031h-34.132813c-4.714844 0-8.535156 3.820313-8.535156 8.535157 0 4.710937 3.820312 8.53125 8.535156 8.53125h34.132813c4.710937 0 8.53125-3.820313 8.53125-8.53125 0-4.714844-3.820313-8.535157-8.53125-8.535157zm0 0" fill="#0066CC"/><path d="m93.867188 221.867188c2.265624.003906 4.433593-.898438 6.03125-2.5l17.070312-17.066407c3.230469-3.347656 3.1875-8.671875-.105469-11.964843-3.292969-3.289063-8.613281-3.335938-11.960937-.101563l-17.066406 17.066406c-2.441407 2.441407-3.171876 6.109375-1.851563 9.296875 1.320313 3.191406 4.433594 5.269532 7.882813 5.269532zm0 0" fill="#0066CC"/><path d="m104.902344 253.5c1.597656 1.601562 3.769531 2.5 6.03125 2.5 2.261718 0 4.433594-.898438 6.035156-2.5l51.199219-51.199219c3.234375-3.347656 3.1875-8.671875-.105469-11.964843-3.289062-3.289063-8.613281-3.335938-11.960938-.101563l-51.199218 51.199219c-1.601563 1.601562-2.503906 3.769531-2.503906 6.035156 0 2.261719.902343 4.433594 2.503906 6.03125zm0 0" fill="#0066CC"/></svg>