<?xml version="1.0" encoding="UTF-8"?>
<svg xmlns="http://www.w3.org/2000/svg" id="Outline" viewBox="0 0 512 512" width="512px" height="512px"><path d="M104,400h32a8,8,0,0,0,8-8V360a8,8,0,0,0-8-8H104a8,8,0,0,0-8,8v32A8,8,0,0,0,104,400Zm8-32h16v16H112Z" fill="#0066CC"/><path d="M168,400h32a8,8,0,0,0,8-8V360a8,8,0,0,0-8-8H168a8,8,0,0,0-8,8v32A8,8,0,0,0,168,400Zm8-32h16v16H176Z" fill="#0066CC"/><path d="M168,464h32a8,8,0,0,0,8-8V424a8,8,0,0,0-8-8H168a8,8,0,0,0-8,8v32A8,8,0,0,0,168,464Zm8-32h16v16H176Z" fill="#0066CC"/><path d="M232,464h32a8,8,0,0,0,8-8V424a8,8,0,0,0-8-8H232a8,8,0,0,0-8,8v32A8,8,0,0,0,232,464Zm8-32h16v16H240Z" fill="#0066CC"/><path d="M232,400h32a8,8,0,0,0,8-8V360a8,8,0,0,0-8-8H232a8,8,0,0,0-8,8v32A8,8,0,0,0,232,400Zm8-32h16v16H240Z" fill="#0066CC"/><path d="M296,400h32a8,8,0,0,0,8-8V360a8,8,0,0,0-8-8H296a8,8,0,0,0-8,8v32A8,8,0,0,0,296,400Zm8-32h16v16H304Z" fill="#0066CC"/><path d="M360,400h32a8,8,0,0,0,8-8V360a8,8,0,0,0-8-8H360a8,8,0,0,0-8,8v32A8,8,0,0,0,360,400Zm8-32h16v16H368Z" fill="#0066CC"/><path d="M424,400h32a8,8,0,0,0,8-8V360a8,8,0,0,0-8-8H424a8,8,0,0,0-8,8v32A8,8,0,0,0,424,400Zm8-32h16v16H432Z" fill="#0066CC"/><path d="M424,464h32a8,8,0,0,0,8-8V424a8,8,0,0,0-8-8H424a8,8,0,0,0-8,8v32A8,8,0,0,0,424,464Zm8-32h16v16H432Z" fill="#0066CC"/><path d="M104,464h32a8,8,0,0,0,8-8V424a8,8,0,0,0-8-8H104a8,8,0,0,0-8,8v32A8,8,0,0,0,104,464Zm8-32h16v16H112Z" fill="#0066CC"/><path d="M488,320H464V264a8,8,0,0,0-4.751-7.311l-144-64A8,8,0,0,0,304,200v51.69l-17.735-7.883L280,55.865V24a8,8,0,0,0-8-8H240a8,8,0,0,0-8,8V55.865L226.619,217.3l-55.37-24.609A8,8,0,0,0,160,200v51.69l-17.735-7.883L136,55.865V24a8,8,0,0,0-8-8H96a8,8,0,0,0-8,8V55.865L82.619,217.3l-55.37-24.609A8,8,0,0,0,16,200V488a8,8,0,0,0,8,8H488a8,8,0,0,0,8-8V328A8,8,0,0,0,488,320ZM320,212.311,448,269.2V320H320V212.311ZM248,32h16V48H248Zm-.262,32h16.524l5.753,172.585L242.394,224.31ZM176,212.311,304,269.2V320H176V212.311ZM104,32h16V48H104Zm-.262,32h16.524l5.753,172.585L98.394,224.31ZM64,328V480H32V212.31L160,269.2V320H72A8,8,0,0,0,64,328ZM384,480H304V432h80Zm96,0H400V424a8,8,0,0,0-8-8H296a8,8,0,0,0-8,8v56H80V336H480Z" fill="#0066CC"/></svg>